<?xml version="1.0" standalone="no"?>
<!DOCTYPE svg PUBLIC "-//W3C//DTD SVG 20010904//EN"
 "http://www.w3.org/TR/2001/REC-SVG-20010904/DTD/svg10.dtd">
<svg version="1.0" xmlns="http://www.w3.org/2000/svg"
 width="700.000000pt" height="700.000000pt" viewBox="0 0 700.000000 700.000000"
 preserveAspectRatio="xMidYMid meet">
<metadata>
Created by potrace 1.11, written by Peter Selinger 2001-2013
</metadata>
<g transform="translate(0.000000,700.000000) scale(0.100000,-0.100000)"
fill="#000000" stroke="none">
<path d="M1715 6511 c-46 -11 -87 -36 -122 -73 -68 -71 -63 112 -63 -2200 0
-2012 1 -2095 19 -2134 23 -49 88 -107 140 -122 24 -8 127 -12 285 -12 l246 0
0 -462 c0 -255 4 -468 8 -475 11 -17 54 -31 74 -24 9 3 60 63 113 134 52 70
99 127 103 127 4 0 44 -51 87 -112 44 -62 88 -121 97 -130 24 -24 63 -23 88 2
19 19 20 33 20 480 l0 460 710 0 710 0 0 -724 c0 -684 1 -725 18 -746 28 -35
54 -19 107 68 79 128 178 252 274 344 l91 88 0 485 0 485 303 0 c273 0 306 2
343 19 53 24 91 74 104 137 7 34 10 706 8 2149 l-3 2100 -23 42 c-12 24 -41
55 -64 70 l-42 28 -522 3 -523 3 -6 -38 c-15 -93 11 -83 -218 -83 l-203 0 -40
58 -39 57 -1025 2 c-564 0 -1038 -2 -1055 -6z m3598 -621 c14 -11 29 -29 32
-39 3 -11 -16 -111 -44 -223 -27 -111 -54 -230 -61 -263 -13 -64 -208 -883
-215 -900 -2 -5 -4 317 -4 718 l-1 727 134 0 c119 0 136 -2 159 -20z m-1848
-434 c88 -20 122 -34 129 -53 9 -23 -33 -153 -51 -160 -9 -4 -55 2 -102 12
-358 74 -708 -26 -960 -277 -93 -93 -148 -170 -206 -289 -226 -469 -69 -1021
374 -1313 65 -43 101 -73 101 -85 0 -27 -31 -114 -48 -133 -22 -26 -51 -22
-117 17 -271 164 -467 410 -560 705 -81 259 -70 560 31 813 20 51 48 112 62
137 68 118 176 260 199 260 5 0 30 -13 56 -30 26 -16 47 -27 47 -24 0 2 -9 22
-20 44 -29 57 -25 80 18 116 160 133 368 229 581 269 99 19 368 13 466 -9z
m521 -249 c222 -176 383 -444 441 -734 23 -117 23 -357 -1 -466 -96 -442 -398
-787 -817 -935 -100 -35 -166 -49 -304 -62 -146 -15 -367 11 -472 55 -36 15
-40 32 -24 128 13 79 22 83 127 50 83 -25 101 -27 269 -27 167 0 186 2 268 27
373 115 669 433 754 811 21 93 21 297 0 392 -57 256 -180 453 -389 621 -38 29
-68 59 -68 66 0 25 94 137 115 137 11 0 57 -28 101 -63z m-730 -38 c10 -11 60
-96 109 -187 l90 -167 257 -5 c363 -7 356 5 176 -328 -67 -123 -121 -230 -121
-236 0 -6 55 -111 122 -234 122 -225 134 -260 107 -298 -13 -18 -32 -19 -276
-24 l-262 -5 -94 -174 c-51 -95 -99 -180 -105 -187 -17 -20 -83 -18 -101 4 -8
9 -57 95 -107 190 l-93 172 -252 0 c-365 0 -357 -13 -181 314 69 128 125 238
125 244 0 7 -44 94 -99 195 -156 289 -154 285 -141 317 7 16 19 32 28 37 10 4
131 10 271 13 l254 5 94 175 c52 96 102 181 111 188 24 18 67 14 88 -9z"/>
<path d="M3167 4875 l-35 -65 74 0 c41 0 74 3 74 6 0 12 -65 124 -72 124 -4 0
-22 -29 -41 -65z"/>
<path d="M2612 4652 c2 -4 32 -61 67 -126 43 -81 66 -115 71 -105 4 8 33 61
64 118 31 57 56 108 56 112 0 5 -59 9 -131 9 -72 0 -129 -4 -127 -8z"/>
<path d="M3039 4638 c-7 -13 -57 -105 -111 -206 l-99 -184 109 -201 108 -202
163 0 163 0 109 201 108 201 -110 207 -111 206 -159 0 c-154 0 -159 -1 -170
-22z"/>
<path d="M3592 4563 c28 -54 60 -111 69 -127 l17 -28 17 33 c10 19 40 76 67
127 l50 92 -136 0 -137 0 53 -97z"/>
<path d="M2733 4068 c-6 -7 -36 -61 -67 -120 l-57 -108 130 0 c72 0 131 3 131
6 0 7 -121 234 -125 234 -1 0 -7 -6 -12 -12z"/>
<path d="M3608 3963 l-65 -118 69 -3 c38 -2 97 -2 132 0 l64 3 -60 110 c-33
61 -63 114 -68 118 -4 5 -37 -45 -72 -110z"/>
<path d="M3167 3620 c21 -38 40 -70 43 -70 5 0 70 125 70 135 0 3 -34 5 -75 5
l-75 0 37 -70z"/>
</g>
</svg>
