<?xml version="1.0" standalone="no"?>
<!DOCTYPE svg PUBLIC "-//W3C//DTD SVG 20010904//EN"
 "http://www.w3.org/TR/2001/REC-SVG-20010904/DTD/svg10.dtd">
<svg version="1.0" xmlns="http://www.w3.org/2000/svg"
 width="512.000000pt" height="512.000000pt" viewBox="0 0 512.000000 512.000000"
 preserveAspectRatio="xMidYMid meet">
<metadata>
Created by potrace 1.11, written by Peter Selinger 2001-2013
</metadata>
<g transform="translate(0.000000,512.000000) scale(0.100000,-0.100000)"
fill="#000000" stroke="none">
<path d="M1255 4761 c-47 -12 -72 -28 -102 -68 l-28 -36 -2 -1546 -3 -1546 23
-39 c14 -25 39 -48 66 -63 42 -22 55 -23 228 -23 l183 0 0 -338 c0 -361 0
-362 50 -362 21 0 39 17 95 95 39 52 73 95 76 95 3 0 36 -43 73 -95 51 -71 73
-95 90 -95 45 0 46 5 46 362 l0 338 525 0 525 0 0 -539 c0 -483 2 -539 16
-545 23 -9 27 -5 101 107 38 57 104 138 150 184 l83 83 0 355 0 355 221 0
c246 0 275 6 310 64 18 30 19 83 19 1599 0 1763 7 1607 -76 1647 -39 19 -59
20 -410 18 -360 -3 -369 -3 -372 -23 -10 -70 3 -65 -161 -65 l-149 0 -29 45
-28 45 -745 -1 c-410 -1 -758 -4 -775 -8z m2635 -456 c11 -10 20 -25 20 -34 0
-17 -36 -175 -157 -686 -41 -176 -77 -322 -79 -324 -2 -2 -4 238 -4 534 l0
538 100 -5 c78 -4 105 -9 120 -23z m-1337 -318 c79 -20 84 -26 69 -85 -20 -73
-26 -76 -115 -58 -173 36 -350 11 -511 -71 -73 -38 -109 -65 -182 -138 -79
-79 -97 -103 -142 -195 -58 -118 -82 -217 -82 -335 0 -257 125 -486 348 -637
46 -31 72 -55 72 -67 0 -30 -29 -90 -48 -100 -46 -25 -277 163 -367 299 -182
273 -203 612 -57 908 42 84 131 206 155 210 9 2 31 -6 48 -19 l31 -22 -16 31
c-26 51 -20 68 37 111 118 89 269 156 408 180 71 13 279 6 352 -12z m369 -186
c140 -114 244 -271 299 -456 30 -101 37 -303 15 -416 -18 -87 -71 -224 -114
-294 -132 -215 -355 -370 -602 -420 -107 -22 -303 -16 -400 12 l-65 19 1 62
c1 35 6 68 11 73 8 8 36 5 94 -10 110 -28 257 -28 363 -1 212 54 421 235 517
446 65 143 80 324 40 477 -40 152 -147 316 -264 405 -31 23 -57 49 -57 56 0
16 68 106 80 106 5 0 42 -27 82 -59z m-549 -14 c10 -6 48 -68 85 -137 l68
-125 193 -5 c176 -5 194 -7 207 -24 8 -11 14 -24 14 -30 0 -5 -41 -86 -92
-180 -50 -93 -91 -175 -91 -181 0 -5 25 -55 55 -110 128 -233 132 -243 114
-270 l-16 -25 -189 0 -190 0 -72 -135 c-57 -107 -77 -137 -97 -142 -14 -3 -32
-1 -41 4 -9 5 -47 68 -86 139 l-70 129 -189 3 c-119 1 -194 7 -203 13 -25 22
-12 59 77 224 50 91 90 169 90 172 0 3 -40 80 -90 172 -50 92 -90 177 -90 189
0 45 31 52 225 52 l181 0 73 134 c40 74 80 137 89 139 9 3 20 5 23 6 3 0 13
-5 22 -12z"/>
<path d="M2322 3575 c-12 -25 -22 -48 -22 -50 0 -3 23 -5 50 -5 l50 0 -25 50
c-14 28 -27 50 -28 50 -2 0 -13 -20 -25 -45z"/>
<path d="M1910 3406 c0 -7 92 -176 95 -176 5 0 95 165 95 174 0 3 -43 6 -95 6
-52 0 -95 -2 -95 -4z"/>
<path d="M2151 3259 l-81 -152 78 -146 79 -146 119 -3 119 -2 78 144 c42 79
77 148 77 153 0 5 -35 74 -78 154 l-77 144 -116 3 -117 3 -81 -152z"/>
<path d="M2600 3398 c0 -7 20 -49 44 -92 43 -78 44 -79 58 -55 26 42 78 142
78 151 0 4 -40 8 -90 8 -65 0 -90 -3 -90 -12z"/>
<path d="M1957 2899 l-48 -89 95 0 c53 0 96 2 96 4 0 3 -89 167 -94 173 -1 1
-23 -39 -49 -88z"/>
<path d="M2638 2898 l-44 -83 89 -3 c49 -1 92 -1 94 2 6 6 -80 166 -89 166 -3
0 -26 -37 -50 -82z"/>
<path d="M2316 2650 c15 -27 31 -47 36 -44 8 5 48 78 48 89 0 3 -25 5 -56 5
l-55 0 27 -50z"/>
</g>
</svg>
