<?xml version="1.0" ?><svg fill="none" height="256" viewBox="0 0 256 256" width="256" xmlns="http://www.w3.org/2000/svg"><path clip-rule="evenodd" d="M128 214C175.496 214 214 175.496 214 128C214 80.5035 175.496 42 128 42C80.5035 42 42 80.5035 42 128C42 175.496 80.5035 214 128 214ZM128 238C188.751 238 238 188.751 238 128C238 67.2487 188.751 18 128 18C67.2487 18 18 67.2487 18 128C18 188.751 67.2487 238 128 238ZM64 54C84.5 37.5 105.5 32.5 130 34.5001C99.4999 34.5 78.5 45.5 66.5 57L66.3003 57.1914C54.2904 68.6998 35.4862 86.7186 33 126C31.5 100 43.5 70.5 64 54ZM113 221.155C137.007 226.438 158.489 224.313 181.025 210.725C203.561 197.137 219.426 169.522 221.443 143.558C213.687 182.146 192.627 197.467 179.176 207.253L178.952 207.415C165.512 217.194 143.222 225.264 113 221.155ZM226 58C235.177 71.1146 244 94 242 115.5C238.5 87.4999 228.634 70.4834 221.728 60.9917C221.552 60.7493 221.373 60.5033 221.192 60.2537L221.188 60.2478C214.277 50.728 203.676 36.1267 172.5 21.9998C202.5 30.5 216.823 44.8854 226 58ZM34 192.5C44 208.5 61.5 223.983 78.5 231.5C67.5 230 56.4777 224.978 49.5 218C41.5 210 37 201.5 34 192.5Z" fill="#414042" fill-rule="evenodd"/><path clip-rule="evenodd" d="M165.64 145.294C165.387 148.135 164.288 150.779 162.5 153.147C166.207 150.022 168.523 146.179 168.906 141.883C169.005 140.78 168.973 139.683 168.818 138.6C179.876 144.927 186.413 153.129 185.665 161.519C184.234 177.544 160.041 191.441 124.046 188.228C86.5826 184.885 66.7015 167.054 68.1318 151.029C68.8403 143.091 75.9387 136.473 86.8678 132.168C86.2394 133.603 85.8421 135.11 85.7021 136.678C84.8338 146.407 94.1296 155.607 107.962 160.129C96.9553 155.203 89.9544 147.107 90.713 138.606C91.2369 132.737 99.0031 122.117 109.032 108.402L109.032 108.402C112.209 104.058 115.612 99.4037 119.085 94.4914C122.802 86.0931 125.417 79.9022 127.809 73.8998L115.372 90.4579C115.372 90.4579 111.084 81.19 115.037 69.3256C119.589 55.6637 136.241 51.5967 136.241 51.5967C144.604 61.5985 148.119 67.8357 154.219 82.4483C154.936 89.6449 154.327 94.2303 152.687 102.52L148.738 118.981L154.644 110.24C161.239 125.104 166.255 138.407 165.64 145.294ZM98.9414 134.218C106.365 121.552 120.298 101.634 120.298 101.634L109.883 123.595C109.883 123.595 103.448 131.438 98.9414 134.218ZM144.534 141.186L129.436 136.14L115.295 137.011L144.534 141.186ZM141.597 182.391C159.726 182.528 185.744 168.931 179.178 155.387C181.598 165.599 159.22 179.891 141.597 182.391ZM144.206 144.861L112.685 141.308L112.397 169.418L139.642 171.11L140.468 166.361C143.303 165.633 150.654 163.392 155.179 158.798C149.578 161.258 143.991 161.373 141.356 161.252L144.206 144.861ZM115.033 148.181L118.706 148.509L120.49 148.668L137.071 150.148L135.025 164.774L134.697 168.447L131.964 164.501L118.129 163.266L118.594 151.384L115.033 148.181ZM66.3564 164.015C69.5644 186.144 95.5757 197.658 132.303 193.062C94.932 191.075 74.562 179.926 66.3564 164.015ZM156.5 105C156.5 105 160 93.0002 159.5 81.5002C154.5 70.0002 148.5 60.5002 148.5 60.5002C148.5 60.5002 159 70.0002 164 80.5002C162 96.0002 156.5 105 156.5 105ZM91.1635 93.8234L99.1878 99.3268L89.9951 102.558L87.5115 112.103L81.5921 104.045L71.5626 104.814L76.7651 96.811L72.8329 88.1363L82.9478 90.139L90.0017 83.8794L91.1635 93.8234ZM188.426 116.665L182.311 117.081L177.852 112.622L176.812 118.471L171.032 121.433L176.365 124.183L176.921 130.169L181.576 125.871L187.649 127.539L185.147 121.853L188.426 116.665Z" fill="#414042" fill-rule="evenodd"/></svg>